# xmcd CD database file
#
# Track frame offsets:
#	182
#	10317
#	23290
#	35130
#	46580
#	58592
#	72150
#	85872
#	95647
#	109432
#	119140
#	128442
#	139645
#	150517
#	160872
#	174962
#	185510
#	195990
#	202505
#	215625
#	227875
#	241080
#	253415
#
# Disc length: 3533 seconds
#
# Revision: 2
# Processed by: cddbd v1.5.2PL0 Copyright (c) Steve Scherf et al.
# Submitted via: CDex 1.70
#
DISCID=300dcb17
DTITLE=Moon Mullican - Moonshine Jamboree
DYEAR=1900
DGENRE=Blues
TTITLE0=Hey Mr Cotton Picker
TTITLE1=Leaving You With A Worried Mind
TTITLE2=What's The Matter With The Mill
TTITLE3=Pipeliner Blues
TTITLE4=Triflin' Woman Blues
TTITLE5=Nine Tenths of the Tennessee River
TTITLE6=Cherokee Boogie
TTITLE7=All I Need Is You
TTITLE8=I'll Sail My Ship Alone
TTITLE9=Good Deal Lucille
TTITLE10=Moonshine Blues
TTITLE11=Rocket to the Moon
TTITLE12=Downstream
TTITLE13=I Done It
TTITLE14=Goodnight Irene
TTITLE15=Rheumatism Boogie
TTITLE16=Well Oh Well
TTITLE17=Don't Ever Take My Picture Down
TTITLE18=The Lonesome Hearted
TTITLE19=It's a Sin to Love You Like I Do
TTITLE20=I'm Gonna Move Home Bye and Bye
TTITLE21=I Left My Heart In Texas
TTITLE22=I'll Take Your Hat Right Off My Rack
EXTD=
EXTT0=
EXTT1=
EXTT2=
EXTT3=
EXTT4=
EXTT5=
EXTT6=
EXTT7=
EXTT8=
EXTT9=
EXTT10=
EXTT11=
EXTT12=
EXTT13=
EXTT14=
EXTT15=
EXTT16=
EXTT17=
EXTT18=
EXTT19=
EXTT20=
EXTT21=
EXTT22=
PLAYORDER=
